<svg width="259" height="338" viewBox="0 0 259 338" fill="none" xmlns="http://www.w3.org/2000/svg">
<path fill-rule="evenodd" clip-rule="evenodd" d="M19.5037 106.859C35.0922 99.5252 47.6337 93.6247 71.0315 95.3842C72.3288 84.3565 80.3726 62.6902 102.169 64.2471C111.575 64.5714 129.608 72.6152 126.494 102.195L161.524 120.683C165.416 122.953 173.005 129.246 172.227 136.252L215.04 172.254L195.58 192.688C196.229 198.201 194.996 210.786 184.876 217.013C174.757 223.241 161.848 218.311 156.658 215.067C151.145 212.473 138.171 209.813 130.387 219.932C122.602 230.052 110.299 252.389 105.434 261.146H13.7522V230.203C17.2786 226.862 27.2141 220.925 30.7695 218.743C48.189 207.741 49.1058 206.062 66.296 209.5C77.7562 211.792 83.5797 215.305 106.5 210.721C129.42 206.137 133.897 187.05 134.279 177.5C134.279 164.894 136 161 131.5 156.858L96.0925 153.42C95.1757 147.919 89.5984 141.96 86.9244 139.668C80.8123 135.084 64.4624 127.062 47.9598 131.646C31.4571 136.23 30.3875 155.712 31.9155 164.88C32.2975 168.7 33.2345 175.195 30.7695 179.779C26.3584 179.779 22.9203 179.779 14.8982 179.779V143.106C17.8057 142.189 20.9682 141.96 21.6013 141.96V131.363C20.6845 131.137 16.3439 131.552 14.8982 131.646L13.7522 109.872C14.8654 109.352 18.4243 107.367 19.5037 106.859ZM13.7522 191.239V216.067C21.7743 210.721 41.7713 197.198 53.6898 198.115C55.5999 198.115 61.0244 198.573 67.4421 200.407C80.0482 203.463 108.24 206.137 120.159 192.385C125.125 185.891 125.146 176.168 124 167L89.5 163.734C87.0756 156.854 84.6323 146.773 66.296 143.106C59.0379 140.432 44.2925 139.21 43.3757 155.712V170.61C43.3757 179.598 42.5 187.062 42.5 190.5C37.9159 190.5 39.9986 191.239 30.9425 191.239C22.9203 191.239 21.7743 191.239 13.7522 191.239ZM91.4652 98.3032C89.9083 109.201 97.3034 119.061 101.196 122.629C109.758 115.623 111.25 103.493 110.926 98.3032C110.277 92.7894 107.423 81.7617 101.196 81.7617C94.9681 81.7617 92.1139 92.7894 91.4652 98.3032ZM134.279 134.306H153.739L160.551 147.928C152.442 148.901 135.836 147.539 134.279 134.306ZM76.6102 163.734V156.858C73.1721 156.094 65.6084 156.4 62.858 163.734H76.6102Z" fill="black"/>
<path fill-rule="evenodd" clip-rule="evenodd" d="M19.5037 106.859C35.0922 99.5252 47.6337 93.6247 71.0315 95.3842C72.3288 84.3565 80.3726 62.6902 102.169 64.2471C111.575 64.5714 129.608 72.6152 126.494 102.195L161.524 120.683C165.416 122.953 173.005 129.246 172.227 136.252L215.04 172.254L195.58 192.688C196.229 198.201 194.996 210.786 184.876 217.013C174.757 223.241 161.848 218.311 156.658 215.067C151.145 212.473 138.171 209.813 130.387 219.932C122.602 230.052 110.299 252.389 105.434 261.146H13.7522V230.203C17.2786 226.862 27.2141 220.925 30.7695 218.743C48.189 207.741 49.1058 206.062 66.296 209.5C77.7562 211.792 83.5797 215.305 106.5 210.721C129.42 206.137 133.897 187.05 134.279 177.5C134.279 164.894 136 161 131.5 156.858L96.0925 153.42C95.1757 147.919 89.5984 141.96 86.9244 139.668C80.8123 135.084 64.4624 127.062 47.9598 131.646C31.4571 136.23 30.3875 155.712 31.9155 164.88C32.2975 168.7 33.2345 175.195 30.7695 179.779C26.3584 179.779 22.9203 179.779 14.8982 179.779V143.106C17.8057 142.189 20.9682 141.96 21.6013 141.96V131.363C20.6845 131.137 16.3439 131.552 14.8982 131.646L13.7522 109.872C14.8654 109.352 18.4243 107.367 19.5037 106.859ZM13.7522 191.239V216.067C21.7743 210.721 41.7713 197.198 53.6898 198.115C55.5999 198.115 61.0244 198.573 67.4421 200.407C80.0482 203.463 108.24 206.137 120.159 192.385C125.125 185.891 125.146 176.168 124 167L89.5 163.734C87.0756 156.854 84.6323 146.773 66.296 143.106C59.0379 140.432 44.2925 139.21 43.3757 155.712V170.61C43.3757 179.598 42.5 187.062 42.5 190.5C37.9159 190.5 39.9986 191.239 30.9425 191.239C22.9203 191.239 21.7743 191.239 13.7522 191.239ZM91.4652 98.3032C89.9083 109.201 97.3034 119.061 101.196 122.629C109.758 115.623 111.25 103.493 110.926 98.3032C110.277 92.7894 107.423 81.7617 101.196 81.7617C94.9681 81.7617 92.1139 92.7894 91.4652 98.3032ZM134.279 134.306H153.739L160.551 147.928C152.442 148.901 135.836 147.539 134.279 134.306ZM76.6102 163.734V156.858C73.1721 156.094 65.6084 156.4 62.858 163.734H76.6102Z" fill="black"/>
<path d="M141.09 1L152.766 11.7034C130.192 31.1641 145.306 50.3004 155.685 57.436C169.697 63.6634 178.39 70.4098 180.984 73.0045C183.32 68.3339 196.877 60.6794 203.364 57.436C229.052 40.3106 216.014 19.812 206.283 11.7034L217.96 1C251.432 30.5802 229.312 60.6794 214.067 72.0315C193.05 79.8158 189.093 92.7895 189.742 98.3034C195.191 90.5191 204.337 87.2757 208.229 86.627C216.014 85.0701 221.852 82.0862 223.798 80.7888C223.798 108.034 206.932 112.25 198.499 110.953C197.72 117.959 203.364 124.251 206.283 126.521L247.151 159.605C253.378 163.497 251.367 169.659 250.07 171.281L240.339 184.903C234.89 192.688 223.798 191.39 218.933 189.769L234.501 169.335L187.796 129.44C180.79 114.65 169.308 108.358 164.443 107.061C141.09 103.947 138.495 88.2487 140.117 80.7888C144.009 84.6809 148.874 85.6539 150.82 85.6539C160.94 86.4324 169.957 93.7626 173.2 97.3304C172.876 93.1139 168.919 83.1241 155.685 76.8966C142.452 70.6692 133.306 59.382 130.387 54.5169C116.375 27.2719 131.684 7.48689 141.09 1Z" fill="black" stroke="black"/>
<path d="M15.5685 90.5194L0 99.2766V33.1104H116.764C116.764 39.3378 118.061 45.4354 118.71 47.7059H15.5685V90.5194Z" fill="black"/>
<path d="M156.658 47.7059C151.988 44.5922 150.172 36.6781 149.847 33.1104H210.175C210.175 40.1162 206.283 45.7598 204.337 47.7059H156.658Z" fill="black"/>
<path d="M240.339 47.7059C244.232 44.5922 243.907 36.6781 243.258 33.1104H256.881V156.686L242.285 142.09V47.7059H240.339Z" fill="black"/>
<path fill-rule="evenodd" clip-rule="evenodd" d="M15.5685 259.827H242.285V198.526L256.881 178.092V275.396H0V243.956C3.17858 240.136 10.7423 231.808 15.5685 229.058V259.827ZM0 227.912C1.0552 225.161 10.8187 218.067 15.5685 214.863V191.239C11.9647 190.657 1.14602 191.239 0 178.633V227.912ZM15.5685 143.106V179.779C6.87611 179.779 6.88332 157.241 6.70313 149.983C6.70313 145.398 12.6134 143.488 15.5685 143.106ZM15.5685 109.007V131.646C11.9647 132.028 3.80564 133.938 0 138.522V118.737C5.44899 114.067 12.6494 110.304 15.5685 109.007Z" fill="black"/>
<path d="M6.70543 306.044V285.044H16.1554C17.4954 285.044 18.7054 285.334 19.7854 285.914C20.8854 286.494 21.7454 287.294 22.3654 288.314C22.9854 289.314 23.2954 290.454 23.2954 291.734C23.2954 293.054 22.9854 294.244 22.3654 295.304C21.7454 296.344 20.8954 297.164 19.8154 297.764C18.7354 298.364 17.5154 298.664 16.1554 298.664H11.5654V306.044H6.70543ZM18.3454 306.044L13.0054 296.564L18.2254 295.814L24.1654 306.044H18.3454ZM11.5654 294.764H15.7054C16.2254 294.764 16.6754 294.654 17.0554 294.434C17.4554 294.194 17.7554 293.864 17.9554 293.444C18.1754 293.024 18.2854 292.544 18.2854 292.004C18.2854 291.464 18.1654 290.994 17.9254 290.594C17.6854 290.174 17.3354 289.854 16.8754 289.634C16.4354 289.414 15.8954 289.304 15.2554 289.304H11.5654V294.764ZM37.0469 306.344C35.4469 306.344 33.9869 306.074 32.6669 305.534C31.3469 304.994 30.1969 304.234 29.2169 303.254C28.2369 302.274 27.4769 301.124 26.9369 299.804C26.3969 298.484 26.1269 297.034 26.1269 295.454C26.1269 293.874 26.3969 292.424 26.9369 291.104C27.4769 289.784 28.2369 288.634 29.2169 287.654C30.1969 286.674 31.3469 285.914 32.6669 285.374C33.9869 284.834 35.4369 284.564 37.0169 284.564C38.5969 284.564 40.0469 284.834 41.3669 285.374C42.6869 285.914 43.8369 286.674 44.8169 287.654C45.7969 288.634 46.5469 289.784 47.0669 291.104C47.6069 292.424 47.8769 293.874 47.8769 295.454C47.8769 297.014 47.6069 298.464 47.0669 299.804C46.5469 301.124 45.7969 302.274 44.8169 303.254C43.8369 304.234 42.6869 304.994 41.3669 305.534C40.0469 306.074 38.6069 306.344 37.0469 306.344ZM37.0169 301.544C37.8369 301.544 38.5869 301.394 39.2669 301.094C39.9669 300.794 40.5669 300.374 41.0669 299.834C41.5869 299.274 41.9869 298.624 42.2669 297.884C42.5469 297.144 42.6869 296.334 42.6869 295.454C42.6869 294.574 42.5469 293.764 42.2669 293.024C41.9869 292.284 41.5869 291.644 41.0669 291.104C40.5669 290.544 39.9669 290.114 39.2669 289.814C38.5869 289.514 37.8369 289.364 37.0169 289.364C36.1969 289.364 35.4369 289.514 34.7369 289.814C34.0569 290.114 33.4569 290.544 32.9369 291.104C32.4169 291.644 32.0169 292.284 31.7369 293.024C31.4769 293.764 31.3469 294.574 31.3469 295.454C31.3469 296.334 31.4769 297.154 31.7369 297.914C32.0169 298.654 32.4169 299.294 32.9369 299.834C33.4569 300.374 34.0569 300.794 34.7369 301.094C35.4369 301.394 36.1969 301.544 37.0169 301.544ZM58.7826 306.344C57.4026 306.344 56.1526 306.184 55.0326 305.864C53.9326 305.524 52.9526 305.044 52.0926 304.424C51.2326 303.784 50.4626 303.034 49.7826 302.174L52.8726 298.664C53.8726 300.004 54.8726 300.904 55.8726 301.364C56.8926 301.824 57.9426 302.054 59.0226 302.054C59.5626 302.054 60.0526 301.984 60.4926 301.844C60.9326 301.704 61.2726 301.504 61.5126 301.244C61.7526 300.964 61.8726 300.624 61.8726 300.224C61.8726 299.924 61.7926 299.654 61.6326 299.414C61.4926 299.174 61.2926 298.964 61.0326 298.784C60.7726 298.604 60.4626 298.444 60.1026 298.304C59.7426 298.144 59.3626 298.014 58.9626 297.914C58.5626 297.794 58.1526 297.694 57.7326 297.614C56.5726 297.354 55.5626 297.034 54.7026 296.654C53.8426 296.274 53.1226 295.814 52.5426 295.274C51.9826 294.714 51.5626 294.084 51.2826 293.384C51.0026 292.664 50.8626 291.864 50.8626 290.984C50.8626 290.044 51.0726 289.184 51.4926 288.404C51.9326 287.604 52.5126 286.924 53.2326 286.364C53.9726 285.784 54.8226 285.344 55.7826 285.044C56.7426 284.724 57.7426 284.564 58.7826 284.564C60.1626 284.564 61.3426 284.714 62.3226 285.014C63.3226 285.294 64.1726 285.704 64.8726 286.244C65.5926 286.784 66.2026 287.434 66.7026 288.194L63.5526 291.224C63.1326 290.704 62.6726 290.274 62.1726 289.934C61.6926 289.594 61.1726 289.334 60.6126 289.154C60.0726 288.974 59.5126 288.884 58.9326 288.884C58.3326 288.884 57.8126 288.964 57.3726 289.124C56.9526 289.264 56.6226 289.474 56.3826 289.754C56.1426 290.014 56.0226 290.334 56.0226 290.714C56.0226 291.054 56.1226 291.344 56.3226 291.584C56.5226 291.824 56.7926 292.044 57.1326 292.244C57.4726 292.424 57.8626 292.584 58.3026 292.724C58.7426 292.844 59.2026 292.944 59.6826 293.024C60.7826 293.244 61.7726 293.534 62.6526 293.894C63.5526 294.254 64.3226 294.694 64.9626 295.214C65.6226 295.734 66.1226 296.354 66.4626 297.074C66.8226 297.774 67.0026 298.594 67.0026 299.534C67.0026 300.994 66.6426 302.234 65.9226 303.254C65.2226 304.254 64.2526 305.024 63.0126 305.564C61.7926 306.084 60.3826 306.344 58.7826 306.344ZM68.1663 306.044L76.4763 285.044H80.7963L89.0463 306.044H83.8863L79.9263 295.394C79.7663 294.974 79.6063 294.524 79.4463 294.044C79.2863 293.564 79.1263 293.074 78.9663 292.574C78.8063 292.054 78.6463 291.554 78.4863 291.074C78.3463 290.574 78.2263 290.114 78.1263 289.694L79.0263 289.664C78.9063 290.164 78.7663 290.654 78.6063 291.134C78.4663 291.614 78.3163 292.094 78.1563 292.574C78.0163 293.034 77.8563 293.504 77.6763 293.984C77.4963 294.444 77.3263 294.924 77.1663 295.424L73.2063 306.044H68.1663ZM72.1263 302.024L73.7163 298.184H83.3763L84.9363 302.024H72.1263ZM101.276 306.044V285.044H110.546C111.986 285.044 113.206 285.254 114.206 285.674C115.206 286.074 115.956 286.664 116.456 287.444C116.976 288.204 117.236 289.124 117.236 290.204C117.236 291.404 116.936 292.414 116.336 293.234C115.756 294.054 114.906 294.604 113.786 294.884L113.726 294.314C114.666 294.514 115.476 294.864 116.156 295.364C116.856 295.864 117.396 296.484 117.776 297.224C118.156 297.944 118.346 298.764 118.346 299.684C118.346 300.744 118.166 301.674 117.806 302.474C117.446 303.254 116.926 303.914 116.246 304.454C115.566 304.994 114.766 305.394 113.846 305.654C112.946 305.914 111.946 306.044 110.846 306.044H101.276ZM106.076 301.784H110.666C111.226 301.784 111.696 301.694 112.076 301.514C112.476 301.334 112.786 301.074 113.006 300.734C113.226 300.374 113.336 299.944 113.336 299.444C113.336 298.984 113.216 298.594 112.976 298.274C112.756 297.954 112.436 297.714 112.016 297.554C111.596 297.374 111.096 297.284 110.516 297.284H106.076V301.784ZM106.076 293.474H109.826C110.346 293.474 110.786 293.394 111.146 293.234C111.526 293.054 111.806 292.814 111.986 292.514C112.186 292.194 112.286 291.814 112.286 291.374C112.286 290.734 112.066 290.234 111.626 289.874C111.186 289.494 110.526 289.304 109.646 289.304H106.076V293.474ZM131.881 306.344C130.281 306.344 128.821 306.074 127.501 305.534C126.181 304.994 125.031 304.234 124.051 303.254C123.071 302.274 122.311 301.124 121.771 299.804C121.231 298.484 120.961 297.034 120.961 295.454C120.961 293.874 121.231 292.424 121.771 291.104C122.311 289.784 123.071 288.634 124.051 287.654C125.031 286.674 126.181 285.914 127.501 285.374C128.821 284.834 130.271 284.564 131.851 284.564C133.431 284.564 134.881 284.834 136.201 285.374C137.521 285.914 138.671 286.674 139.651 287.654C140.631 288.634 141.381 289.784 141.901 291.104C142.441 292.424 142.711 293.874 142.711 295.454C142.711 297.014 142.441 298.464 141.901 299.804C141.381 301.124 140.631 302.274 139.651 303.254C138.671 304.234 137.521 304.994 136.201 305.534C134.881 306.074 133.441 306.344 131.881 306.344ZM131.851 301.544C132.671 301.544 133.421 301.394 134.101 301.094C134.801 300.794 135.401 300.374 135.901 299.834C136.421 299.274 136.821 298.624 137.101 297.884C137.381 297.144 137.521 296.334 137.521 295.454C137.521 294.574 137.381 293.764 137.101 293.024C136.821 292.284 136.421 291.644 135.901 291.104C135.401 290.544 134.801 290.114 134.101 289.814C133.421 289.514 132.671 289.364 131.851 289.364C131.031 289.364 130.271 289.514 129.571 289.814C128.891 290.114 128.291 290.544 127.771 291.104C127.251 291.644 126.851 292.284 126.571 293.024C126.311 293.764 126.181 294.574 126.181 295.454C126.181 296.334 126.311 297.154 126.571 297.914C126.851 298.654 127.251 299.294 127.771 299.834C128.291 300.374 128.891 300.794 129.571 301.094C130.271 301.394 131.031 301.544 131.851 301.544ZM146.657 306.044V285.044H151.217L162.227 300.044L161.237 299.894C161.137 299.234 161.057 298.604 160.997 298.004C160.937 297.404 160.877 296.814 160.817 296.234C160.777 295.654 160.737 295.064 160.697 294.464C160.677 293.864 160.657 293.214 160.637 292.514C160.637 291.814 160.637 291.054 160.637 290.234V285.044H165.587V306.044H160.967L149.477 290.564L151.007 290.774C151.107 291.734 151.187 292.554 151.247 293.234C151.327 293.894 151.387 294.484 151.427 295.004C151.487 295.524 151.527 295.994 151.547 296.414C151.567 296.834 151.577 297.254 151.577 297.674C151.597 298.074 151.607 298.524 151.607 299.024V306.044H146.657ZM183.876 306.044V285.044H188.976V306.044H183.876ZM170.856 306.044V285.044H175.956V306.044H170.856ZM172.836 297.854L172.866 293.294H186.576V297.854H172.836ZM194.235 306.044V285.044H208.875V289.394H199.185V301.694H209.175V306.044H194.235ZM196.635 297.434V293.294H207.525V297.434H196.635ZM222.421 306.224C220.681 306.224 219.131 305.874 217.771 305.174C216.411 304.454 215.341 303.474 214.561 302.234C213.801 300.994 213.421 299.574 213.421 297.974V285.044H218.581V297.704C218.581 298.464 218.751 299.154 219.091 299.774C219.431 300.374 219.891 300.854 220.471 301.214C221.051 301.554 221.701 301.724 222.421 301.724C223.181 301.724 223.851 301.554 224.431 301.214C225.031 300.854 225.511 300.374 225.871 299.774C226.231 299.154 226.411 298.464 226.411 297.704V285.044H231.391V297.974C231.391 299.574 231.001 300.994 230.221 302.234C229.461 303.474 228.401 304.454 227.041 305.174C225.681 305.874 224.141 306.224 222.421 306.224ZM236.51 306.044V285.044H245.96C247.3 285.044 248.51 285.334 249.59 285.914C250.69 286.494 251.55 287.294 252.17 288.314C252.79 289.314 253.1 290.454 253.1 291.734C253.1 293.054 252.79 294.244 252.17 295.304C251.55 296.344 250.7 297.164 249.62 297.764C248.54 298.364 247.32 298.664 245.96 298.664H241.37V306.044H236.51ZM248.15 306.044L242.81 296.564L248.03 295.814L253.97 306.044H248.15ZM241.37 294.764H245.51C246.03 294.764 246.48 294.654 246.86 294.434C247.26 294.194 247.56 293.864 247.76 293.444C247.98 293.024 248.09 292.544 248.09 292.004C248.09 291.464 247.97 290.994 247.73 290.594C247.49 290.174 247.14 289.854 246.68 289.634C246.24 289.414 245.7 289.304 245.06 289.304H241.37V294.764Z" fill="black"/>
</svg>
